<?xml version="1.0" encoding="UTF-8"?>
<svg version="1.1" xmlns="http://www.w3.org/2000/svg" width="320" height="316">
<path d="M0 0 C1.10900665 -0.01052147 1.10900665 -0.01052147 2.24041748 -0.02125549 C4.61086189 -0.03865277 6.98105661 -0.04510691 9.3515625 -0.046875 C10.56558746 -0.04788712 10.56558746 -0.04788712 11.80413818 -0.04891968 C23.48022268 -0.03342724 34.60112089 0.35638328 45.9765625 3.203125 C46.67700684 3.36409668 47.37745117 3.52506836 48.09912109 3.69091797 C76.97392481 10.35728982 101.58438268 25.00134472 122.9765625 45.203125 C123.77449219 45.93660156 124.57242187 46.67007813 125.39453125 47.42578125 C144.04981613 65.19130692 157.80646868 89.53334284 164.7890625 114.265625 C165.06314941 115.23508057 165.06314941 115.23508057 165.34277344 116.22412109 C168.97383866 130.06713778 170.53309371 143.61797967 170.4140625 157.890625 C170.40950043 159.06126495 170.40950043 159.06126495 170.40484619 160.2555542 C170.3304632 173.2243117 169.37729575 185.63143289 165.9765625 198.203125 C165.77289063 198.96608887 165.56921875 199.72905273 165.359375 200.51513672 C160.5696211 217.75603328 152.71651808 234.86987573 141.9765625 249.203125 C141.58952148 249.73389648 141.20248047 250.26466797 140.80371094 250.81152344 C115.36802367 285.57296229 78.17165559 307.6710389 35.9765625 315.203125 C30.61444567 315.97458591 25.37346477 316.3716708 19.953125 316.40625 C19.21378723 316.41326431 18.47444946 316.42027863 17.71270752 316.42750549 C15.34226311 316.44490277 12.97206839 316.45135691 10.6015625 316.453125 C9.38753754 316.45413712 9.38753754 316.45413712 8.14898682 316.45516968 C-3.52709768 316.43967724 -14.64799589 316.04986672 -26.0234375 313.203125 C-26.72388184 313.04215332 -27.42432617 312.88118164 -28.14599609 312.71533203 C-57.00206869 306.05328467 -81.65901994 291.41741894 -103.0234375 271.203125 C-103.84457031 270.43484375 -104.66570312 269.6665625 -105.51171875 268.875 C-112.12801545 262.4953671 -117.5885991 255.57568168 -123.0234375 248.203125 C-123.62800781 247.45160156 -124.23257813 246.70007813 -124.85546875 245.92578125 C-135.20110975 232.52732815 -141.65384999 214.45771399 -146.0234375 198.203125 C-146.23226562 197.43258789 -146.44109375 196.66205078 -146.65625 195.86816406 C-152.90451996 171.49793391 -152.58363229 142.45458582 -146.0234375 118.203125 C-145.81976563 117.44016113 -145.61609375 116.67719727 -145.40625 115.89111328 C-140.6164961 98.65021672 -132.76339308 81.53637427 -122.0234375 67.203125 C-121.63639648 66.67235352 -121.24935547 66.14158203 -120.85058594 65.59472656 C-95.41489867 30.83328771 -58.21853059 8.7352111 -16.0234375 1.203125 C-10.66132067 0.43166409 -5.42033977 0.0345792 0 0 Z " fill="#0C4497" transform="translate(150.0234375,-0.203125)"/>
<path d="M0 0 C1.10900665 -0.01052147 1.10900665 -0.01052147 2.24041748 -0.02125549 C4.61086189 -0.03865277 6.98105661 -0.04510691 9.3515625 -0.046875 C10.56558746 -0.04788712 10.56558746 -0.04788712 11.80413818 -0.04891968 C23.48022268 -0.03342724 34.60112089 0.35638328 45.9765625 3.203125 C46.67700684 3.36409668 47.37745117 3.52506836 48.09912109 3.69091797 C76.97392481 10.35728982 101.58438268 25.00134472 122.9765625 45.203125 C123.77449219 45.93660156 124.57242187 46.67007813 125.39453125 47.42578125 C144.04981613 65.19130692 157.80646868 89.53334284 164.7890625 114.265625 C165.06314941 115.23508057 165.06314941 115.23508057 165.34277344 116.22412109 C168.97383866 130.06713778 170.53309371 143.61797967 170.4140625 157.890625 C170.40950043 159.06126495 170.40950043 159.06126495 170.40484619 160.2555542 C170.3304632 173.2243117 169.37729575 185.63143289 165.9765625 198.203125 C165.77289063 198.96608887 165.56921875 199.72905273 165.359375 200.51513672 C160.5696211 217.75603328 152.71651808 234.86987573 141.9765625 249.203125 C141.58952148 249.73389648 141.20248047 250.26466797 140.80371094 250.81152344 C115.36802367 285.57296229 78.17165559 307.6710389 35.9765625 315.203125 C30.61444567 315.97458591 25.37346477 316.3716708 19.953125 316.40625 C19.21378723 316.41326431 18.47444946 316.42027863 17.71270752 316.42750549 C15.34226311 316.44490277 12.97206839 316.45135691 10.6015625 316.453125 C9.38753754 316.45413712 9.38753754 316.45413712 8.14898682 316.45516968 C-3.48672844 316.43973081 -14.70444306 316.15213505 -26.0234375 313.203125 C-26.83554688 312.99429687 -27.64765625 312.78546875 -28.484375 312.5703125 C-33.69371423 311.20931396 -38.86514754 309.74573417 -44.0234375 308.203125 C-43.40677703 304.45890427 -42.32778175 301.34290812 -40.73828125 297.90234375 C-40.29033203 296.92587891 -39.84238281 295.94941406 -39.38085938 294.94335938 C-38.91228516 293.93595703 -38.44371094 292.92855469 -37.9609375 291.890625 C-37.48849609 290.86388672 -37.01605469 289.83714844 -36.52929688 288.77929688 C-35.36541425 286.251673 -34.19665895 283.72642428 -33.0234375 281.203125 C-32.3634375 281.203125 -31.7034375 281.203125 -31.0234375 281.203125 C-30.92546875 281.8321875 -30.8275 282.46125 -30.7265625 283.109375 C-29.14984574 292.13471921 -26.69181284 298.71764047 -19.4140625 304.59375 C-11.35049351 310.02216572 -2.73996554 312.8815536 6.9765625 311.203125 C9.7230774 310.1612114 12.18215009 308.96232812 14.72265625 307.4921875 C17.07513269 306.14675037 19.44402998 305.1589662 21.9765625 304.203125 C21.9765625 303.543125 21.9765625 302.883125 21.9765625 302.203125 C22.6984375 301.543125 23.4203125 300.883125 24.1640625 300.203125 C30.95153631 293.66632494 33.91117142 283.66345064 34.27734375 274.4609375 C34.29577204 272.75009479 34.29911824 271.03903741 34.2890625 269.328125 C34.28849854 268.4213501 34.28793457 267.5145752 34.28735352 266.58032227 C34.19349363 259.53714972 33.35868529 252.78665772 31.95629883 245.88916016 C31.23034333 242.27579555 30.91494476 239.72715322 31.9765625 236.203125 C32.32323975 236.96343018 32.66991699 237.72373535 33.02709961 238.50708008 C34.35068804 241.38904127 35.68881769 244.26369952 37.03637695 247.13452148 C37.89004796 248.96415572 38.7274974 250.8013312 39.56445312 252.63867188 C45.88393794 266.04474659 54.83185507 278.6576525 68.8984375 284.4765625 C76.7687717 287.2282207 84.13324653 286.71298611 91.9765625 284.203125 C93.2965625 284.203125 94.6165625 284.203125 95.9765625 284.203125 C95.9765625 283.543125 95.9765625 282.883125 95.9765625 282.203125 C97.31650065 281.2949447 98.70084562 280.45193131 100.1015625 279.640625 C107.1547831 275.07155757 111.19990696 268.52169399 113.50390625 260.4921875 C115.6113855 250.28571775 113.24030999 238.62419343 108.5390625 229.375 C106.82517787 226.82065272 104.9933444 224.52615896 102.9765625 222.203125 C102.13609375 221.21570313 101.295625 220.22828125 100.4296875 219.2109375 C95.41508275 213.46625078 90.17522343 208.43263366 84.0703125 203.82421875 C82.21366595 202.38670323 80.58971598 200.90417466 78.9765625 199.203125 C84.23460819 200.02149787 89.00996874 202.06433884 93.91796875 204.03125 C105.47829314 208.52326176 120.35964677 209.35788868 132.1015625 205.078125 C142.17253312 200.56835702 150.77670685 193.64861126 154.9765625 183.203125 C156.26556617 174.29403891 156.64960147 163.15643072 151.6953125 155.3671875 C150.84453125 154.29597656 150.84453125 154.29597656 149.9765625 153.203125 C149.30625 152.34460938 148.6359375 151.48609375 147.9453125 150.6015625 C138.66797245 140.11816824 125.69311565 136.13074112 111.9765625 135.203125 C102.5962604 134.83547836 93.29433817 135.00083137 83.9765625 136.203125 C87.80423801 132.81349409 92.35218383 131.35522374 97.0390625 129.515625 C104.85965828 126.3261415 111.55333496 122.78378265 117.9765625 117.203125 C118.72292969 116.56632812 119.46929687 115.92953125 120.23828125 115.2734375 C125.34858852 110.56930992 128.26776488 105.54917737 130.9765625 99.203125 C131.50765625 98.11773437 132.03875 97.03234375 132.5859375 95.9140625 C134.16862141 91.69060825 134.47706587 88.3492478 134.4140625 83.890625 C134.40721436 83.14441895 134.40036621 82.39821289 134.39331055 81.62939453 C134.2159093 75.50473269 133.0292741 70.56818958 129.9765625 65.203125 C129.66074219 64.57277344 129.34492188 63.94242188 129.01953125 63.29296875 C124.61140213 55.78098841 115.11051011 51.40823612 106.9765625 49.203125 C92.52536168 47.59743602 78.63551831 51.41746636 66.9765625 60.203125 C58.05362921 67.56915422 50.56564815 75.7070898 43.9765625 85.203125 C43.6465625 84.543125 43.3165625 83.883125 42.9765625 83.203125 C44.08428029 80.00095105 45.32414375 76.88908749 46.61914062 73.75976562 C50.38711985 64.26301223 51.32315637 54.79378014 51.2890625 44.640625 C51.31323242 43.19526367 51.31323242 43.19526367 51.33789062 41.72070312 C51.34459641 31.77602226 49.40357592 22.70265976 42.22265625 15.42578125 C37.84826384 11.37668613 33.46180208 8.50599984 27.9765625 6.203125 C27.0690625 5.790625 26.1615625 5.378125 25.2265625 4.953125 C15.26323699 2.65389604 6.84994875 4.23855337 -2.0234375 9.203125 C-12.3707036 16.22323988 -17.36351347 26.22226383 -20.0234375 38.203125 C-20.45368178 43.15948644 -20.40923812 48.04584471 -20.2734375 53.015625 C-20.25539062 54.29244141 -20.23734375 55.56925781 -20.21875 56.88476562 C-20.17220399 59.9917119 -20.10684096 63.0969875 -20.0234375 66.203125 C-19.3634375 66.203125 -18.7034375 66.203125 -18.0234375 66.203125 C-16.6963114 70.1845033 -16.95427837 74.05357727 -17.0234375 78.203125 C-16.3634375 78.203125 -15.7034375 78.203125 -15.0234375 78.203125 C-15.0234375 80.513125 -15.0234375 82.823125 -15.0234375 85.203125 C-18.01697324 80.71282139 -20.31603333 75.95479246 -22.3359375 70.953125 C-29.29408366 54.65543507 -40.68648111 43.20467774 -57.0234375 36.203125 C-65.85472553 33.93910389 -77.89049173 33.43014153 -86.046875 37.94921875 C-86.69914062 38.36300781 -87.35140625 38.77679688 -88.0234375 39.203125 C-88.77882812 39.62722656 -89.53421875 40.05132812 -90.3125 40.48828125 C-97.66390259 44.90158147 -103.10722625 50.77691044 -105.9609375 58.953125 C-109.16169284 71.97758227 -106.37667401 83.26666695 -99.5859375 94.640625 C-90.37541455 107.38106918 -78.40494005 116.26494552 -65.0234375 124.203125 C-67.0234375 125.203125 -67.0234375 125.203125 -69.23828125 124.49609375 C-70.58599609 123.94888672 -70.58599609 123.94888672 -71.9609375 123.390625 C-81.41298065 119.879519 -90.11195677 119.00704784 -100.1484375 118.890625 C-101.07889893 118.87290039 -102.00936035 118.85517578 -102.96801758 118.83691406 C-115.39938606 118.85015418 -125.0144075 123.794697 -134.0234375 132.203125 C-141.6470366 140.98821426 -141.78416338 151.0028228 -141.21875 162.11083984 C-140.79509211 166.64927495 -139.33935739 170.32161441 -137.0234375 174.203125 C-136.59933594 174.91726562 -136.17523438 175.63140625 -135.73828125 176.3671875 C-129.74790846 185.27765844 -121.58718833 188.95078136 -111.375 191.45703125 C-103.37764269 193.0079997 -95.14419137 193.0382366 -87.0234375 193.203125 C-87.0234375 192.543125 -87.0234375 191.883125 -87.0234375 191.203125 C-84.44186382 190.67180111 -81.85881994 190.15278121 -79.2734375 189.640625 C-78.54382813 189.48916016 -77.81421875 189.33769531 -77.0625 189.18164062 C-73.35786677 188.45755322 -70.63021428 188.10495269 -67.0234375 189.203125 C-68.3434375 189.533125 -69.6634375 189.863125 -71.0234375 190.203125 C-71.0234375 190.863125 -71.0234375 191.523125 -71.0234375 192.203125 C-71.9515625 192.533125 -72.8796875 192.863125 -73.8359375 193.203125 C-88.19408312 199.37741886 -99.34087917 212.01647458 -105.9609375 225.890625 C-109.72409049 235.58510521 -109.40433598 246.15187613 -105.34375 255.70703125 C-101.14301027 263.64866642 -95.82827571 268.83129462 -88.0234375 273.203125 C-86.9303125 273.821875 -85.8371875 274.440625 -84.7109375 275.078125 C-76.18662846 277.67876166 -67.11065755 276.87167555 -59.0234375 273.203125 C-42.70421004 264.44049132 -33.56469677 251.67592757 -24.0234375 236.203125 C-22.73739921 240.06123988 -23.56617199 240.99969132 -25.26953125 244.62109375 C-25.77347412 245.70302002 -26.27741699 246.78494629 -26.79663086 247.8996582 C-27.34585205 249.05167725 -27.89507324 250.20369629 -28.4609375 251.390625 C-29.01209229 252.5664917 -29.56324707 253.7423584 -30.13110352 254.95385742 C-33.44830205 261.9981257 -36.88429055 268.97243308 -40.42651367 275.90551758 C-43.42289772 281.84189996 -45.73897106 287.96758848 -48.0234375 294.203125 C-48.78706036 296.14347817 -49.55730286 298.08124697 -50.3359375 300.015625 C-50.66207031 300.82644531 -50.98820312 301.63726562 -51.32421875 302.47265625 C-51.55496094 303.04371094 -51.78570312 303.61476563 -52.0234375 304.203125 C-65.30143447 300.64651867 -77.30678462 292.60001461 -88.0234375 284.203125 C-88.8896875 283.54054688 -89.7559375 282.87796875 -90.6484375 282.1953125 C-103.13998804 272.35458519 -113.71526917 261.0460408 -123.0234375 248.203125 C-123.62285156 247.45675781 -124.22226563 246.71039063 -124.83984375 245.94140625 C-135.20098414 232.55125498 -141.65335301 214.45956271 -146.0234375 198.203125 C-146.23226562 197.43258789 -146.44109375 196.66205078 -146.65625 195.86816406 C-152.90451996 171.49793391 -152.58363229 142.45458582 -146.0234375 118.203125 C-145.81976563 117.44016113 -145.61609375 116.67719727 -145.40625 115.89111328 C-140.6164961 98.65021672 -132.76339308 81.53637427 -122.0234375 67.203125 C-121.63639648 66.67235352 -121.24935547 66.14158203 -120.85058594 65.59472656 C-95.41489867 30.83328771 -58.21853059 8.7352111 -16.0234375 1.203125 C-10.66132067 0.43166409 -5.42033977 0.0345792 0 0 Z " fill="#ED7123" transform="translate(150.0234375,-0.203125)"/>
<path d="M0 0 C2.71757812 1.92666917 5.24313635 3.96372803 7.76953125 6.1328125 C8.47207031 6.65359375 9.17460937 7.174375 9.8984375 7.7109375 C18.6969871 14.52938298 26.27093716 26.63984205 28.45703125 37.5703125 C30.24371961 57.22388446 27.60269282 75.48583554 14.5859375 91.1171875 C4.12527207 102.72515172 -9.85509372 109.47038367 -25.44140625 110.3046875 C-43.17203429 110.71798885 -56.34385545 104.46848383 -69.16015625 92.30078125 C-80.81744692 79.99586332 -84.76098745 65.11759905 -84.65039062 48.63867188 C-84.14089204 31.32878389 -76.5540401 18.06807895 -64.23046875 6.1328125 C-46.75175359 -9.51420782 -20.17412258 -11.66049649 0 0 Z " fill="#EC7024" transform="translate(185.23046875,105.8671875)"/>
<path d="M0 0 C0.83724609 -0.01611328 1.67449219 -0.03222656 2.53710938 -0.04882812 C8.79735878 -0.05378478 12.03987559 1.23035248 16.8125 5.375 C24.32866585 13.7859475 28.94744673 21.04187466 28.68359375 32.51171875 C27.88677079 41.58032294 23.44807599 49.58839372 16.8125 55.75 C14.73387028 57.11751956 12.65686954 58.20281523 10.4375 59.3125 C9.9425 60.3025 9.9425 60.3025 9.4375 61.3125 C2.26937688 63.70187437 -9.83819213 63.8366038 -16.80078125 60.47265625 C-25.51172376 54.73618192 -30.28133738 48.15598787 -33.5625 38.3125 C-34.25427414 27.217507 -34.11354648 18.26667249 -26.8125 9.4375 C-23.25058236 5.68639626 -20.47152078 3.85793247 -15.5625 2.3125 C-14.70011719 1.96703125 -13.83773437 1.6215625 -12.94921875 1.265625 C-8.56748483 0.03247266 -4.52845055 -0.01751141 0 0 Z " fill="#0E4496" transform="translate(160.5625,126.6875)"/>
<path d="M0 0 C0.33 0 0.66 0 1 0 C1 2.31 1 4.62 1 7 C1.66 7 2.32 7 3 7 C4.3271261 10.9813783 4.06915913 14.85045227 4 19 C4.66 19 5.32 19 6 19 C6 21.31 6 23.62 6 26 C1.71913988 19.57870981 -1.56198934 12.31403198 -4 5 C-3.34 5 -2.68 5 -2 5 C-2 5.66 -2 6.32 -2 7 C-1.34 7 -0.68 7 0 7 C0 4.69 0 2.38 0 0 Z " fill="#D36F32" transform="translate(129,59)"/>
<path d="M0 0 C1.37016732 4.11050197 0.10362493 5.68100651 -1.6875 9.5625 C-2.20699219 10.71878906 -2.72648437 11.87507812 -3.26171875 13.06640625 C-5.04555503 16.07688051 -5.81985091 16.83111563 -9 18 C-10.70921589 19.5412312 -10.70921589 19.5412312 -12 21 C-12.66 20.67 -13.32 20.34 -14 20 C-13.57589844 19.47792969 -13.15179688 18.95585937 -12.71484375 18.41796875 C-8.02777894 12.53595994 -3.93814178 6.40396916 0 0 Z " fill="#CE6E33" transform="translate(126,236)"/>
<path d="M0 0 C-1.32 0.33 -2.64 0.66 -4 1 C-4 1.66 -4 2.32 -4 3 C-5.11375 3.474375 -6.2275 3.94875 -7.375 4.4375 C-9.26710994 5.25306463 -11.15712709 6.07856355 -13 7 C-13 6.01 -13 5.02 -13 4 C-15.31 3.67 -17.62 3.34 -20 3 C-20 2.67 -20 2.34 -20 2 C-17.41842632 1.46867611 -14.83538244 0.94965621 -12.25 0.4375 C-11.52039063 0.28603516 -10.79078125 0.13457031 -10.0390625 -0.02148438 C-6.33442927 -0.74557178 -3.60677678 -1.09817231 0 0 Z " fill="#A56746" transform="translate(83,189)"/>
<path d="M0 0 C0.66 0.33 1.32 0.66 2 1 C-4.45362563 8.4688027 -4.45362563 8.4688027 -7.25 11.1875 C-9.26925822 13.27887458 -10.57493248 15.47374394 -12 18 C-12.66 18.99 -13.32 19.98 -14 21 C-14.66 21 -15.32 21 -16 21 C-13.06699099 12.60500992 -6.34837858 6.03095965 0 0 Z " fill="#33497F" transform="translate(62,201)"/>
<path d="M0 0 C0.28875 0.61875 0.5775 1.2375 0.875 1.875 C1.93720042 4.13325765 1.93720042 4.13325765 4 6 C1.03 9.96 -1.94 13.92 -5 18 C-6 16 -6 16 -4.78515625 12.3046875 C-4.21866415 10.82514342 -3.64408111 9.34867819 -3.0625 7.875 C-2.77181641 7.12089844 -2.48113281 6.36679688 -2.18164062 5.58984375 C-1.46125002 3.72391398 -0.73149596 1.8616042 0 0 Z " fill="#D87030" transform="translate(199,67)"/>
<path d="M0 0 C0.33 0.99 0.66 1.98 1 3 C0.01 3.33 -0.98 3.66 -2 4 C-3.05806603 5.83922866 -3.05806603 5.83922866 -4 8 C-4.94517132 9.41907337 -5.92564037 10.81518147 -6.9375 12.1875 C-7.69353516 13.22970703 -7.69353516 13.22970703 -8.46484375 14.29296875 C-10 16 -10 16 -13 17 C-13 16.34 -13 15.68 -13 15 C-11.84500511 13.84500511 -10.68551845 12.69415578 -9.50390625 11.56640625 C-7.19097421 9.15735236 -5.28895289 6.46997985 -3.33203125 3.76953125 C-2 2 -2 2 0 0 Z " fill="#354A7D" transform="translate(205,70)"/>
<path d="M0 0 C2.60018816 3.90028225 2.15085514 7.47434569 2 12 C2.66 12 3.32 12 4 12 C4 14.31 4 16.62 4 19 C-1.15463918 11.26804124 -1.15463918 11.26804124 -0.6875 7.4375 C-0.460625 6.633125 -0.23375 5.82875 0 5 C0.0370279 3.3337447 0.04759962 1.66598681 0 0 Z " fill="#7F5E5B" transform="translate(131,66)"/>
<path d="M0 0 C2.672336 3.56311466 3.77263971 5.84585747 5 10 C4.67 10 4.34 10 4 10 C3.67 11.98 3.34 13.96 3 16 C2.67 16 2.34 16 2 16 C1.34 10.72 0.68 5.44 0 0 Z " fill="#C56E39" transform="translate(181,236)"/>
<path d="M0 0 C4.60853797 0.72008406 8.67237409 2.31295939 13 4 C12.360625 4.12375 11.72125 4.2475 11.0625 4.375 C10.381875 4.58125 9.70125 4.7875 9 5 C8.67 5.66 8.34 6.32 8 7 C6.66382648 6.02471263 5.3311249 5.04466681 4 4.0625 C3.2575 3.51722656 2.515 2.97195312 1.75 2.41015625 C1.1725 1.94480469 0.595 1.47945312 0 1 C0 0.67 0 0.34 0 0 Z " fill="#A86846" transform="translate(229,199)"/>
<path d="M0 0 C1.21386936 3.64160808 0.6674695 4.33165469 -0.9375 7.6875 C-1.31777344 8.49574219 -1.69804688 9.30398437 -2.08984375 10.13671875 C-2.39019531 10.75160156 -2.69054687 11.36648437 -3 12 C-3.99 11.67 -4.98 11.34 -6 11 C-4.54955729 6.89041233 -2.48889248 3.56741255 0 0 Z " fill="#BC6E3C" transform="translate(126,236)"/>
<path d="M0 0 C1.81612488 0.95144598 3.62781081 1.91136933 5.4375 2.875 C6.44683594 3.40867187 7.45617187 3.94234375 8.49609375 4.4921875 C11 6 11 6 12 8 C8.37 7.01 4.74 6.02 1 5 C1.33 4.01 1.66 3.02 2 2 C1.34 2 0.68 2 0 2 C0 1.34 0 0.68 0 0 Z " fill="#AF6E49" transform="translate(73,117)"/>
<path d="M0 0 C0.66 0.33 1.32 0.66 2 1 C-0.97 4.3 -3.94 7.6 -7 11 C-7.66 10.67 -8.32 10.34 -9 10 C-7.8758824 8.70756532 -6.75067408 7.41607925 -5.625 6.125 C-4.99851563 5.40570312 -4.37203125 4.68640625 -3.7265625 3.9453125 C-2.52573166 2.5923402 -1.2791655 1.2791655 0 0 Z " fill="#2B4986" transform="translate(146,9)"/>
<path d="M0 0 C0.33 0.66 0.66 1.32 1 2 C-0.43775696 5.21783702 -2.04417512 8.06626269 -4 11 C-4.66 11 -5.32 11 -6 11 C-4.74194623 6.49197399 -3.09592835 3.5087188 0 0 Z " fill="#454D76" transform="translate(134,136)"/>
<path d="M0 0 C0.66 0 1.32 0 2 0 C0.4422692 3.82352106 -1.91595258 6.29205593 -5 9 C-5.99 9 -6.98 9 -8 9 C-6.85459775 7.68712379 -5.70866567 6.37470979 -4.5625 5.0625 C-3.92441406 4.33160156 -3.28632812 3.60070312 -2.62890625 2.84765625 C-1.77458541 1.87860647 -0.91348825 0.91348825 0 0 Z " fill="#BE6A3C" transform="translate(121,112)"/>
<path d="M0 0 C0.66 0.33 1.32 0.66 2 1 C0.92807816 2.3218362 -0.15802695 3.63217927 -1.25 4.9375 C-1.85328125 5.66839844 -2.4565625 6.39929688 -3.078125 7.15234375 C-5.10741134 9.10326334 -6.254407 9.61731779 -9 10 C-8.06409496 8.8944811 -7.12620142 7.79064547 -6.1875 6.6875 C-5.66542969 6.07261719 -5.14335938 5.45773438 -4.60546875 4.82421875 C-3.12827531 3.14575321 -1.59960869 1.56117966 0 0 Z " fill="#424C74" transform="translate(62,201)"/>
<path d="M0 0 C1.25 1.5625 1.25 1.5625 2 4 C0.72495356 7.31801857 -0.76369066 10.38184533 -4 12 C-2.66666667 8 -1.33333333 4 0 0 Z " fill="#B96C40" transform="translate(197,73)"/>
<path d="M0 0 C0.33 0.66 0.66 1.32 1 2 C-1.65654657 5.73884332 -3.58110387 7.64978174 -8 9 C-7.04270084 7.87411986 -6.08412105 6.7493285 -5.125 5.625 C-4.59132813 4.99851563 -4.05765625 4.37203125 -3.5078125 3.7265625 C-2.38567993 2.44163349 -1.20628025 1.20628025 0 0 Z " fill="#B76A3C" transform="translate(301,191)"/>
<path d="M0 0 C0.66 0.33 1.32 0.66 2 1 C0.02 3.31 -1.96 5.62 -4 8 C-4.99 7.67 -5.98 7.34 -7 7 C-4.69 4.69 -2.38 2.38 0 0 Z " fill="#324B7F" transform="translate(213,62)"/>
<path d="M0 0 C0.66 0 1.32 0 2 0 C2 1.98 2 3.96 2 6 C1.01 5.67 0.02 5.34 -1 5 C-1 5.99 -1 6.98 -1 8 C-1.66 8 -2.32 8 -3 8 C-1.125 2.25 -1.125 2.25 0 0 Z " fill="#B46940" transform="translate(117,281)"/>
<path d="M0 0 C0.33 0.66 0.66 1.32 1 2 C1.66 2 2.32 2 3 2 C3 4 3 4 1.125 6.125 C-1 8 -1 8 -3 8 C-1.125 2.25 -1.125 2.25 0 0 Z " fill="#384B7E" transform="translate(110,273)"/>
<path d="M0 0 C0.66 0.33 1.32 0.66 2 1 C-0.46153846 5.8 -0.46153846 5.8 -3.1875 6.8125 C-3.785625 6.874375 -4.38375 6.93625 -5 7 C-3.47793991 4.37098712 -2.15634036 2.15634036 0 0 Z " fill="#374A7A" transform="translate(19,128)"/>
<path d="M0 0 C1.32 0.33 2.64 0.66 4 1 C4.33 3.31 4.66 5.62 5 8 C2.21611025 6.29374499 1.14615794 5.52373261 0.25 2.3125 C0.1675 1.549375 0.085 0.78625 0 0 Z " fill="#3D4D79" transform="translate(179,232)"/>
</svg>
